<svg xmlns="http://www.w3.org/2000/svg" width="512" height="512" viewBox="0 0 512 512">
  <defs>
    <linearGradient id="bg" x1="0%" y1="0%" x2="100%" y2="100%">
      <stop offset="0%" stop-color="#1e40af"/>
      <stop offset="100%" stop-color="#0ea5e9"/>
    </linearGradient>
  </defs>
  <rect width="512" height="512" rx="112" fill="url(#bg)"/>
  <circle cx="256" cy="256" r="148" fill="#ffffff" opacity="0.14"/>
  <path fill="#ffffff" d="M256 132c-61 0-110 49-110 110v38c0 61 49 110 110 110s110-49 110-110v-38c0-61-49-110-110-110zm0 44c36.6 0 66 29.4 66 66v38c0 36.6-29.4 66-66 66s-66-29.4-66-66v-38c0-36.6 29.4-66 66-66zm-22 88a22 22 0 1 0 44 0 22 22 0 0 0-44 0zm66 0a22 22 0 1 0 44 0 22 22 0 0 0-44 0z"/>
  <text x="256" y="392" text-anchor="middle" fill="#ffffff" font-family="Arial,Helvetica,sans-serif" font-size="52" font-weight="700">APP</text>
</svg>
